<?xml version="1.0" encoding="UTF-8"?> <svg xmlns="http://www.w3.org/2000/svg" width="362.002" height="49.053" viewBox="0 0 362.002 49.053"><defs><style>.a{fill:#0080bb;}</style></defs><g transform="translate(-227.707 -90.458)"><path class="a" d="M415.541,96.1a5.268,5.268,0,1,1-5.217-5.126,5.164,5.164,0,0,1,5.217,5.126m-9.22,0a3.99,3.99,0,0,0,4,4.094,3.926,3.926,0,0,0,3.905-4.062,3.957,3.957,0,1,0-7.907-.032m3.156,2.654h-1.189V93.628a14.447,14.447,0,0,1,1.969-.155,2.706,2.706,0,0,1,1.75.406,1.28,1.28,0,0,1,.533,1.094,1.32,1.32,0,0,1-1.061,1.217v.065c.5.157.749.563.9,1.247a4.353,4.353,0,0,0,.379,1.251h-1.253A3.933,3.933,0,0,1,411.1,97.5c-.1-.527-.406-.779-1.063-.779h-.563Zm.032-2.874h.563c.652,0,1.185-.216,1.185-.749,0-.468-.341-.783-1.1-.783a2.884,2.884,0,0,0-.652.063Z" transform="translate(174.168 0.507)"></path><path class="a" d="M245.463,123.067h-9.41V138.3h-8.346V90.868h18.7c11.057,0,18.035,6.236,18.035,15.924,0,10.7-8.538,16.275-18.979,16.275m.278-24.6h-9.688v17.08h9.688c6.292,0,10.233-3.455,10.233-8.544,0-5.63-4-8.536-10.233-8.536" transform="translate(0 0.403)"></path><path class="a" d="M282.677,138.3l-11.65-16.535H260.588V138.3h-8.336V90.868H273.4c10.913,0,17.621,5.769,17.621,15.058,0,7.86-4.678,12.59-11.307,14.417L292.5,138.3Zm-9.957-39.833H260.588v15.92h12.193c5.971,0,9.765-3.118,9.765-8,0-5.217-3.651-7.919-9.826-7.919" transform="translate(24.111 0.403)"></path><path class="a" d="M278.681,90.868V138.3h35.481v-7.436H287V118.109h23.784v-7.453H287V98.33h26.851V90.868Z" transform="translate(50.073 0.403)"></path><path class="a" d="M323.167,111.115c10.023,2.45,15.232,6.032,15.232,13.958,0,8.964-6.986,14.247-16.925,14.247a29.26,29.26,0,0,1-19.79-7.578l5.009-5.971c4.538,3.927,9.081,6.157,14.974,6.157,5.146,0,8.393-2.361,8.393-6.022,0-3.465-1.887-5.289-10.7-7.329-10.1-2.43-15.785-5.418-15.785-14.223,0-8.266,6.778-13.827,16.18-13.827A26.3,26.3,0,0,1,336.982,96.5l-4.472,6.3c-4.258-3.192-8.55-4.886-12.875-4.886-4.873,0-7.719,2.522-7.719,5.7,0,3.735,2.167,5.358,11.252,7.515" transform="translate(72.67 0.068)"></path><rect class="a" width="8.337" height="47.43" transform="translate(424.768 91.274)"></rect><path class="a" d="M357.1,138.3H339.424V90.868H357.1c14.9,0,25.209,10.233,25.209,23.655S372,138.3,357.1,138.3m0-39.833h-9.351v32.258H357.1c9.969,0,16.465-6.72,16.465-16.075s-6.5-16.184-16.465-16.184" transform="translate(109.742 0.403)"></path><rect class="a" width="8.324" height="47.43" transform="translate(506.021 91.274)"></rect><path class="a" d="M404.063,139.511c-14.562,0-24.71-11.051-24.71-24.46A24.316,24.316,0,0,1,404.2,90.458c14.568,0,24.737,11.042,24.737,24.468s-10.3,24.585-24.876,24.585m0-41.4c-9.414,0-15.987,7.545-15.987,16.816,0,9.289,6.706,16.929,16.126,16.929s16.007-7.513,16.007-16.8c0-9.271-6.722-16.941-16.146-16.941" transform="translate(148.966 0)"></path><path class="a" d="M404.063,139.511c-14.562,0-24.71-11.051-24.71-24.46A24.316,24.316,0,0,1,404.2,90.458c14.568,0,24.737,11.042,24.737,24.468s-10.3,24.585-24.876,24.585m0-41.4c-9.414,0-15.987,7.545-15.987,16.816,0,9.289,6.706,16.929,16.126,16.929s16.007-7.513,16.007-16.8c0-9.271-6.722-16.941-16.146-16.941" transform="translate(148.966 0)"></path></g></svg> 